# Created by Kenney (www.kenney.nl)

mtllib conveyor-bars-stripe-high.mtl

g conveyor-bars-stripe-high

v -0.5 0.3 -0.5 1 1 1
v 0.5 0.3 -0.5 1 1 1
v -0.5 0.4 -0.5 1 1 1
v 0.5 0.4 -0.5 1 1 1
v 0.5 0.4 -0.4 1 1 1
v -0.5 0.4 -0.4 1 1 1
v 0.5 0 -0.4 1 1 1
v 0.5 0 -0.5 1 1 1
v -0.5 0 -0.4 1 1 1
v -0.5 0 -0.5 1 1 1
v -0.5 0.1 -0.5 1 1 1
v 0.5 0.1 -0.5 1 1 1
v 0.5 0.275 -0.45 1 1 1
v 0.5 0.125 -0.45 1 1 1
v -0.5 0.275 -0.45 1 1 1
v -0.5 0.125 -0.45 1 1 1
v 0.5 0.3 0.5 1 1 1
v -0.5 0.3 0.5 1 1 1
v 0.5 0.4 0.5 1 1 1
v -0.5 0.4 0.5 1 1 1
v 0.5 4.511946E-17 0.5 1 1 1
v 0.5 4.511946E-17 0.4 1 1 1
v -0.5 4.511946E-17 0.5 1 1 1
v -0.5 4.511946E-17 0.4 1 1 1
v 0.5 0.4 0.4 1 1 1
v -0.5 0.4 0.4 1 1 1
v 0.5 0.1 0.5 1 1 1
v -0.5 0.1 0.5 1 1 1
v 0.5 0.125 0.45 1 1 1
v -0.5 0.125 0.45 1 1 1
v 0.5 0.275 0.45 1 1 1
v -0.5 0.275 0.45 1 1 1
v 0.4785534 0.1214466 0.2 1 1 1
v 0.4785534 0.1214466 -0.2 1 1 1
v 0.375 0.1 0.2 1 1 1
v 0.375 0.1 -0.2 1 1 1
v 0.2714466 0.1214466 -0.2 1 1 1
v 0.25 0.225 -0.2 1 1 1
v 0.2714466 0.1214466 0.2 1 1 1
v 0.25 0.225 0.2 1 1 1
v 0.2714466 0.3285534 -0.2 1 1 1
v 0.2714466 0.3285534 0.2 1 1 1
v 0.4785534 0.3285534 -0.2 1 1 1
v 0.4785534 0.3285534 0.2 1 1 1
v 0.375 0.35 -0.2 1 1 1
v 0.375 0.35 0.2 1 1 1
v 0.5 0.225 -0.2 1 1 1
v 0.5 0.225 0.2 1 1 1
v 0.2285534 0.1214466 0.2 1 1 1
v 0.2285534 0.1214466 -0.2 1 1 1
v 0.125 0.1 0.2 1 1 1
v 0.125 0.1 -0.2 1 1 1
v 0.02144662 0.1214466 -0.2 1 1 1
v 0 0.225 -0.2 1 1 1
v 0.02144662 0.1214466 0.2 1 1 1
v 0 0.225 0.2 1 1 1
v 0.02144662 0.3285534 -0.2 1 1 1
v 0.02144662 0.3285534 0.2 1 1 1
v 0.2285534 0.3285534 -0.2 1 1 1
v 0.2285534 0.3285534 0.2 1 1 1
v 0.125 0.35 -0.2 1 1 1
v 0.125 0.35 0.2 1 1 1
v -0.2714466 0.1214466 0.2 1 1 1
v -0.2714466 0.1214466 -0.2 1 1 1
v -0.375 0.1 0.2 1 1 1
v -0.375 0.1 -0.2 1 1 1
v -0.4785534 0.1214466 -0.2 1 1 1
v -0.5 0.225 -0.2 1 1 1
v -0.4785534 0.1214466 0.2 1 1 1
v -0.5 0.225 0.2 1 1 1
v -0.4785534 0.3285534 -0.2 1 1 1
v -0.4785534 0.3285534 0.2 1 1 1
v -0.2714466 0.3285534 -0.2 1 1 1
v -0.2714466 0.3285534 0.2 1 1 1
v -0.375 0.35 -0.2 1 1 1
v -0.375 0.35 0.2 1 1 1
v -0.25 0.225 -0.2 1 1 1
v -0.25 0.225 0.2 1 1 1
v -0.02144661 0.1214466 0.2 1 1 1
v -0.02144661 0.1214466 -0.2 1 1 1
v -0.125 0.1 0.2 1 1 1
v -0.125 0.1 -0.2 1 1 1
v -0.2285534 0.1214466 -0.2 1 1 1
v -0.2285534 0.1214466 0.2 1 1 1
v -0.2285534 0.3285534 -0.2 1 1 1
v -0.2285534 0.3285534 0.2 1 1 1
v -0.02144661 0.3285534 -0.2 1 1 1
v -0.02144661 0.3285534 0.2 1 1 1
v -0.125 0.35 -0.2 1 1 1
v -0.125 0.35 0.2 1 1 1
v -3.537366E-14 0.225 -0.2 1 1 1
v -3.537366E-14 0.225 0.2 1 1 1
v 0.375 0.1 -0.4 1 1 1
v 0.4785534 0.1214466 -0.4 1 1 1
v 0.2714466 0.1214466 -0.4 1 1 1
v 0.5 0.225 -0.4 1 1 1
v 0.25 0.225 -0.4 1 1 1
v 0.4785534 0.3285534 -0.4 1 1 1
v 0.2714466 0.3285534 -0.4 1 1 1
v 0.375 0.35 -0.4 1 1 1
v 0.375 0.1 0.4 1 1 1
v 0.2714466 0.1214466 0.4 1 1 1
v 0.4785534 0.1214466 0.4 1 1 1
v 0.5 0.225 0.4 1 1 1
v 0.25 0.225 0.4 1 1 1
v 0.4785534 0.3285534 0.4 1 1 1
v 0.2714466 0.3285534 0.4 1 1 1
v 0.375 0.35 0.4 1 1 1
v 0.2714466 0.1214466 -0.2 1 1 1
v 0.25 0.225 -0.2 1 1 1
v 0.4785534 0.3285534 -0.2 1 1 1
v 0.5 0.225 -0.2 1 1 1
v 0.375 0.1 -0.2 1 1 1
v 0.2714466 0.3285534 -0.2 1 1 1
v 0.4785534 0.1214466 -0.2 1 1 1
v 0.375 0.35 -0.2 1 1 1
v 0.125 0.1 -0.4 1 1 1
v 0.2285534 0.1214466 -0.4 1 1 1
v 0.02144661 0.1214466 -0.4 1 1 1
v 0 0.225 -0.4 1 1 1
v 0.2285534 0.3285534 -0.4 1 1 1
v 0.02144661 0.3285534 -0.4 1 1 1
v 0.125 0.35 -0.4 1 1 1
v 0.125 0.1 0.4 1 1 1
v 0.02144661 0.1214466 0.4 1 1 1
v 0.2285534 0.1214466 0.4 1 1 1
v 0 0.225 0.4 1 1 1
v 0.2285534 0.3285534 0.4 1 1 1
v 0.02144661 0.3285534 0.4 1 1 1
v 0.125 0.35 0.4 1 1 1
v 0.02144661 0.1214466 0.2 1 1 1
v 0.02144661 0.3285534 0.2 1 1 1
v 0.02144661 0.1214466 -0.2 1 1 1
v 0 0.225 -0.2 1 1 1
v 0.2285534 0.3285534 -0.2 1 1 1
v 0.125 0.1 -0.2 1 1 1
v 0.02144661 0.3285534 -0.2 1 1 1
v 0.2285534 0.1214466 -0.2 1 1 1
v 0.125 0.35 -0.2 1 1 1
v -0.125 0.1 -0.4 1 1 1
v -0.02144661 0.1214466 -0.4 1 1 1
v -0.2285534 0.1214466 -0.4 1 1 1
v -0.25 0.225 -0.4 1 1 1
v -0.02144661 0.3285534 -0.4 1 1 1
v -0.2285534 0.3285534 -0.4 1 1 1
v -0.125 0.35 -0.4 1 1 1
v -0.125 0.1 0.4 1 1 1
v -0.2285534 0.1214466 0.4 1 1 1
v -0.02144661 0.1214466 0.4 1 1 1
v -0.25 0.225 0.4 1 1 1
v -0.02144661 0.3285534 0.4 1 1 1
v -0.2285534 0.3285534 0.4 1 1 1
v -0.125 0.35 0.4 1 1 1
v -0.2285534 0.1214466 -0.2 1 1 1
v -0.25 0.225 -0.2 1 1 1
v -0.02144661 0.3285534 -0.2 1 1 1
v -0.125 0.1 -0.2 1 1 1
v -0.2285534 0.3285534 -0.2 1 1 1
v -0.02144661 0.1214466 -0.2 1 1 1
v -0.125 0.35 -0.2 1 1 1
v -0.375 0.1 -0.4 1 1 1
v -0.2714466 0.1214466 -0.4 1 1 1
v -0.4785534 0.1214466 -0.4 1 1 1
v -0.5 0.225 -0.4 1 1 1
v -0.2714466 0.3285534 -0.4 1 1 1
v -0.4785534 0.3285534 -0.4 1 1 1
v -0.375 0.35 -0.4 1 1 1
v -0.375 0.1 0.4 1 1 1
v -0.4785534 0.1214466 0.4 1 1 1
v -0.2714466 0.1214466 0.4 1 1 1
v -0.5 0.225 0.4 1 1 1
v -0.2714466 0.3285534 0.4 1 1 1
v -0.4785534 0.3285534 0.4 1 1 1
v -0.375 0.35 0.4 1 1 1
v -0.4785534 0.1214466 -0.2 1 1 1
v -0.5 0.225 -0.2 1 1 1
v -0.2714466 0.3285534 -0.2 1 1 1
v -0.375 0.1 -0.2 1 1 1
v -0.4785534 0.3285534 -0.2 1 1 1
v -0.2714466 0.1214466 -0.2 1 1 1
v -0.375 0.35 -0.2 1 1 1

vn 0 -0.5257311 -0.8506508
vn 0 0 -1
vn 0 1 0
vn 0 -1 0
vn 0 0 1
vn 0 0.5257311 -0.8506508
vn 1 0 0
vn 0 -0.8944272 -0.4472136
vn -1 0 0
vn 0 0.8944272 -0.4472136
vn 0 -0.5257311 0.8506508
vn 0 0.5257311 0.8506508
vn 0 0.8944272 0.4472136
vn 0 -0.8944272 0.4472136
vn 0.7071068 -0.7071068 0
vn -0.7071068 -0.7071068 0
vn -0.7071068 0.7071068 0
vn 0.7071068 0.7071068 0

vt 0.21875 0.175
vt 0.21875 0.225
vt 0.21875 0.025
vt 0.21875 0.075
vt 0.21875 0.1625
vt 0.21875 0.0875
vt 0.21875 0.04215728
vt 0.21875 0.125
vt 0.21875 0.2078427
vt 0.09375 0.0875
vt 0.09375 0.1625
vt 0.09375 0.025
vt 0.09375 0.04215728
vt 0.09375 0.125
vt 0.09375 0.2078427
vt 0.09375 0.225

usemtl colormap

f 3/2/2 2/1/1 1/1/1
f 2/1/1 3/2/2 4/2/2
f 3/2/3 5/2/3 4/2/3
f 5/2/3 3/2/3 6/2/3
f 9/3/4 8/3/4 7/3/4
f 8/3/4 9/3/4 10/3/4
f 5/2/5 9/3/5 7/3/5
f 9/3/5 5/2/5 6/2/5
f 11/4/6 8/3/2 10/3/2
f 8/3/2 11/4/6 12/4/6
f 5/2/7 2/1/7 4/2/7
f 2/1/7 5/2/7 13/5/7
f 13/5/7 5/2/7 14/6/7
f 7/3/7 14/6/7 5/2/7
f 8/3/7 14/6/7 7/3/7
f 14/6/7 8/3/7 12/4/7
f 15/5/8 2/1/1 13/5/8
f 2/1/1 15/5/8 1/1/1
f 9/3/9 11/4/9 10/3/9
f 11/4/9 9/3/9 16/6/9
f 16/6/9 9/3/9 15/5/9
f 6/2/9 15/5/9 9/3/9
f 3/2/9 15/5/9 6/2/9
f 15/5/9 3/2/9 1/1/9
f 11/4/6 14/6/10 12/4/6
f 14/6/10 11/4/6 16/6/10
f 19/2/5 18/1/11 17/1/11
f 18/1/11 19/2/5 20/2/5
f 23/3/4 22/3/4 21/3/4
f 22/3/4 23/3/4 24/3/4
f 25/2/3 20/2/3 19/2/3
f 20/2/3 25/2/3 26/2/3
f 29/6/13 28/4/12 27/4/12
f 28/4/12 29/6/13 30/6/13
f 31/5/7 19/2/7 17/1/7
f 31/5/7 25/2/7 19/2/7
f 25/2/7 31/5/7 22/3/7
f 29/6/7 22/3/7 31/5/7
f 22/3/7 29/6/7 21/3/7
f 21/3/7 29/6/7 27/4/7
f 26/2/2 22/3/2 24/3/2
f 22/3/2 26/2/2 25/2/2
f 30/6/9 23/3/9 28/4/9
f 30/6/9 24/3/9 23/3/9
f 24/3/9 30/6/9 26/2/9
f 32/5/9 26/2/9 30/6/9
f 26/2/9 32/5/9 20/2/9
f 20/2/9 32/5/9 18/1/9
f 18/1/11 31/5/14 17/1/11
f 31/5/14 18/1/11 32/5/14
f 27/4/12 23/3/5 21/3/5
f 23/3/5 27/4/12 28/4/12
f 35/3/4 34/7/15 33/7/15
f 34/7/15 35/3/4 36/3/4
f 39/7/16 38/8/9 37/7/16
f 38/8/9 39/7/16 40/8/9
f 40/8/9 41/9/17 38/8/9
f 41/9/17 40/8/9 42/9/17
f 39/7/16 36/3/4 35/3/4
f 36/3/4 39/7/16 37/7/16
f 45/2/3 44/9/18 43/9/18
f 44/9/18 45/2/3 46/2/3
f 41/9/17 46/2/3 45/2/3
f 46/2/3 41/9/17 42/9/17
f 44/9/18 47/8/7 43/9/18
f 47/8/7 44/9/18 48/8/7
f 48/8/7 34/7/15 47/8/7
f 34/7/15 48/8/7 33/7/15
f 51/3/4 50/7/15 49/7/15
f 50/7/15 51/3/4 52/3/4
f 55/7/16 54/8/9 53/7/16
f 54/8/9 55/7/16 56/8/9
f 56/8/9 57/9/17 54/8/9
f 57/9/17 56/8/9 58/9/17
f 55/7/16 52/3/4 51/3/4
f 52/3/4 55/7/16 53/7/16
f 61/2/3 60/9/18 59/9/18
f 60/9/18 61/2/3 62/2/3
f 57/9/17 62/2/3 61/2/3
f 62/2/3 57/9/17 58/9/17
f 60/9/18 38/8/7 59/9/18
f 38/8/7 60/9/18 40/8/7
f 40/8/7 50/7/15 38/8/7
f 50/7/15 40/8/7 49/7/15
f 65/3/4 64/7/15 63/7/15
f 64/7/15 65/3/4 66/3/4
f 69/7/16 68/8/9 67/7/16
f 68/8/9 69/7/16 70/8/9
f 70/8/9 71/9/17 68/8/9
f 71/9/17 70/8/9 72/9/17
f 69/7/16 66/3/4 65/3/4
f 66/3/4 69/7/16 67/7/16
f 75/2/3 74/9/18 73/9/18
f 74/9/18 75/2/3 76/2/3
f 71/9/17 76/2/3 75/2/3
f 76/2/3 71/9/17 72/9/17
f 74/9/18 77/8/7 73/9/18
f 77/8/7 74/9/18 78/8/7
f 78/8/7 64/7/15 77/8/7
f 64/7/15 78/8/7 63/7/15
f 81/3/4 80/7/15 79/7/15
f 80/7/15 81/3/4 82/3/4
f 84/7/16 77/8/9 83/7/16
f 77/8/9 84/7/16 78/8/9
f 78/8/9 85/9/17 77/8/9
f 85/9/17 78/8/9 86/9/17
f 84/7/16 82/3/4 81/3/4
f 82/3/4 84/7/16 83/7/16
f 89/2/3 88/9/18 87/9/18
f 88/9/18 89/2/3 90/2/3
f 85/9/17 90/2/3 89/2/3
f 90/2/3 85/9/17 86/9/17
f 88/9/18 91/8/7 87/9/18
f 91/8/7 88/9/18 92/8/7
f 92/8/7 80/7/15 91/8/7
f 80/7/15 92/8/7 79/7/15
f 15/11/2 14/10/2 16/10/2
f 14/10/2 15/11/2 13/11/2
f 31/11/5 30/10/5 29/10/5
f 30/10/5 31/11/5 32/11/5
f 95/13/2 94/13/2 93/12/2
f 94/13/2 95/13/2 96/14/2
f 96/14/2 95/13/2 97/14/2
f 96/14/2 97/14/2 98/15/2
f 98/15/2 97/14/2 99/15/2
f 98/15/2 99/15/2 100/16/2
f 103/13/5 102/13/5 101/12/5
f 102/13/5 103/13/5 104/14/5
f 102/13/5 104/14/5 105/14/5
f 105/14/5 104/14/5 106/15/5
f 105/14/5 106/15/5 107/15/5
f 107/15/5 106/15/5 108/16/5
f 102/13/16 35/12/4 101/12/4
f 35/12/4 102/13/16 39/13/16
f 105/14/9 42/15/17 40/14/9
f 42/15/17 105/14/9 107/15/17
f 46/16/3 106/15/18 44/15/18
f 106/15/18 46/16/3 108/16/3
f 104/14/7 33/13/15 48/14/7
f 33/13/15 104/14/7 103/13/15
f 101/12/4 33/13/15 103/13/15
f 33/13/15 101/12/4 35/12/4
f 42/15/17 108/16/3 46/16/3
f 108/16/3 42/15/17 107/15/17
f 102/13/16 40/14/9 39/13/16
f 40/14/9 102/13/16 105/14/9
f 106/15/18 48/14/7 44/15/18
f 48/14/7 106/15/18 104/14/7
f 109/13/16 97/14/9 95/13/16
f 97/14/9 109/13/16 110/14/9
f 111/15/18 96/14/7 98/15/18
f 96/14/7 111/15/18 112/14/7
f 109/13/16 93/12/4 113/12/4
f 93/12/4 109/13/16 95/13/16
f 110/14/9 99/15/17 97/14/9
f 99/15/17 110/14/9 114/15/17
f 112/14/7 94/13/15 96/14/7
f 94/13/15 112/14/7 115/13/15
f 100/16/3 111/15/18 98/15/18
f 111/15/18 100/16/3 116/16/3
f 113/12/4 94/13/15 115/13/15
f 94/13/15 113/12/4 93/12/4
f 99/15/17 116/16/3 100/16/3
f 116/16/3 99/15/17 114/15/17
f 119/13/2 118/13/2 117/12/2
f 118/13/2 119/13/2 97/14/2
f 97/14/2 119/13/2 120/14/2
f 97/14/2 120/14/2 121/15/2
f 121/15/2 120/14/2 122/15/2
f 121/15/2 122/15/2 123/16/2
f 126/13/5 125/13/5 124/12/5
f 125/13/5 126/13/5 105/14/5
f 125/13/5 105/14/5 127/14/5
f 127/14/5 105/14/5 128/15/5
f 127/14/5 128/15/5 129/15/5
f 129/15/5 128/15/5 130/16/5
f 125/13/16 51/12/4 124/12/4
f 51/12/4 125/13/16 131/13/16
f 127/14/9 132/15/17 56/14/9
f 132/15/17 127/14/9 129/15/17
f 62/16/3 128/15/18 60/15/18
f 128/15/18 62/16/3 130/16/3
f 105/14/7 49/13/15 40/14/7
f 49/13/15 105/14/7 126/13/15
f 124/12/4 49/13/15 126/13/15
f 49/13/15 124/12/4 51/12/4
f 132/15/17 130/16/3 62/16/3
f 130/16/3 132/15/17 129/15/17
f 125/13/16 56/14/9 131/13/16
f 56/14/9 125/13/16 127/14/9
f 128/15/18 40/14/7 60/15/18
f 40/14/7 128/15/18 105/14/7
f 133/13/16 120/14/9 119/13/16
f 120/14/9 133/13/16 134/14/9
f 135/15/18 97/14/7 121/15/18
f 97/14/7 135/15/18 110/14/7
f 133/13/16 117/12/4 136/12/4
f 117/12/4 133/13/16 119/13/16
f 134/14/9 122/15/17 120/14/9
f 122/15/17 134/14/9 137/15/17
f 110/14/7 118/13/15 97/14/7
f 118/13/15 110/14/7 138/13/15
f 123/16/3 135/15/18 121/15/18
f 135/15/18 123/16/3 139/16/3
f 136/12/4 118/13/15 138/13/15
f 118/13/15 136/12/4 117/12/4
f 122/15/17 139/16/3 123/16/3
f 139/16/3 122/15/17 137/15/17
f 142/13/2 141/13/2 140/12/2
f 141/13/2 142/13/2 120/14/2
f 120/14/2 142/13/2 143/14/2
f 120/14/2 143/14/2 144/15/2
f 144/15/2 143/14/2 145/15/2
f 144/15/2 145/15/2 146/16/2
f 149/13/5 148/13/5 147/12/5
f 148/13/5 149/13/5 127/14/5
f 148/13/5 127/14/5 150/14/5
f 150/14/5 127/14/5 151/15/5
f 150/14/5 151/15/5 152/15/5
f 152/15/5 151/15/5 153/16/5
f 148/13/16 81/12/4 147/12/4
f 81/12/4 148/13/16 84/13/16
f 150/14/9 86/15/17 78/14/9
f 86/15/17 150/14/9 152/15/17
f 90/16/3 151/15/18 88/15/18
f 151/15/18 90/16/3 153/16/3
f 127/14/7 79/13/15 56/14/7
f 79/13/15 127/14/7 149/13/15
f 147/12/4 79/13/15 149/13/15
f 79/13/15 147/12/4 81/12/4
f 86/15/17 153/16/3 90/16/3
f 153/16/3 86/15/17 152/15/17
f 148/13/16 78/14/9 84/13/16
f 78/14/9 148/13/16 150/14/9
f 151/15/18 56/14/7 88/15/18
f 56/14/7 151/15/18 127/14/7
f 154/13/16 143/14/9 142/13/16
f 143/14/9 154/13/16 155/14/9
f 156/15/18 120/14/7 144/15/18
f 120/14/7 156/15/18 134/14/7
f 154/13/16 140/12/4 157/12/4
f 140/12/4 154/13/16 142/13/16
f 155/14/9 145/15/17 143/14/9
f 145/15/17 155/14/9 158/15/17
f 134/14/7 141/13/15 120/14/7
f 141/13/15 134/14/7 159/13/15
f 146/16/3 156/15/18 144/15/18
f 156/15/18 146/16/3 160/16/3
f 157/12/4 141/13/15 159/13/15
f 141/13/15 157/12/4 140/12/4
f 145/15/17 160/16/3 146/16/3
f 160/16/3 145/15/17 158/15/17
f 163/13/2 162/13/2 161/12/2
f 162/13/2 163/13/2 143/14/2
f 143/14/2 163/13/2 164/14/2
f 143/14/2 164/14/2 165/15/2
f 165/15/2 164/14/2 166/15/2
f 165/15/2 166/15/2 167/16/2
f 170/13/5 169/13/5 168/12/5
f 169/13/5 170/13/5 150/14/5
f 169/13/5 150/14/5 171/14/5
f 171/14/5 150/14/5 172/15/5
f 171/14/5 172/15/5 173/15/5
f 173/15/5 172/15/5 174/16/5
f 169/13/16 65/12/4 168/12/4
f 65/12/4 169/13/16 69/13/16
f 171/14/9 72/15/17 70/14/9
f 72/15/17 171/14/9 173/15/17
f 76/16/3 172/15/18 74/15/18
f 172/15/18 76/16/3 174/16/3
f 150/14/7 63/13/15 78/14/7
f 63/13/15 150/14/7 170/13/15
f 168/12/4 63/13/15 170/13/15
f 63/13/15 168/12/4 65/12/4
f 72/15/17 174/16/3 76/16/3
f 174/16/3 72/15/17 173/15/17
f 169/13/16 70/14/9 69/13/16
f 70/14/9 169/13/16 171/14/9
f 172/15/18 78/14/7 74/15/18
f 78/14/7 172/15/18 150/14/7
f 175/13/16 164/14/9 163/13/16
f 164/14/9 175/13/16 176/14/9
f 177/15/18 143/14/7 165/15/18
f 143/14/7 177/15/18 155/14/7
f 175/13/16 161/12/4 178/12/4
f 161/12/4 175/13/16 163/13/16
f 176/14/9 166/15/17 164/14/9
f 166/15/17 176/14/9 179/15/17
f 155/14/7 162/13/15 143/14/7
f 162/13/15 155/14/7 180/13/15
f 167/16/3 177/15/18 165/15/18
f 177/15/18 167/16/3 181/16/3
f 178/12/4 162/13/15 180/13/15
f 162/13/15 178/12/4 161/12/4
f 166/15/17 181/16/3 167/16/3
f 181/16/3 166/15/17 179/15/17

g conveyor-bars-stripe-high




usemtl colormap

f 3/2/2 2/1/1 1/1/1
f 2/1/1 3/2/2 4/2/2
f 3/2/3 5/2/3 4/2/3
f 5/2/3 3/2/3 6/2/3
f 9/3/4 8/3/4 7/3/4
f 8/3/4 9/3/4 10/3/4
f 5/2/5 9/3/5 7/3/5
f 9/3/5 5/2/5 6/2/5
f 11/4/6 8/3/2 10/3/2
f 8/3/2 11/4/6 12/4/6
f 5/2/7 2/1/7 4/2/7
f 2/1/7 5/2/7 13/5/7
f 13/5/7 5/2/7 14/6/7
f 7/3/7 14/6/7 5/2/7
f 8/3/7 14/6/7 7/3/7
f 14/6/7 8/3/7 12/4/7
f 15/5/8 2/1/1 13/5/8
f 2/1/1 15/5/8 1/1/1
f 9/3/9 11/4/9 10/3/9
f 11/4/9 9/3/9 16/6/9
f 16/6/9 9/3/9 15/5/9
f 6/2/9 15/5/9 9/3/9
f 3/2/9 15/5/9 6/2/9
f 15/5/9 3/2/9 1/1/9
f 11/4/6 14/6/10 12/4/6
f 14/6/10 11/4/6 16/6/10
f 19/2/5 18/1/11 17/1/11
f 18/1/11 19/2/5 20/2/5
f 23/3/4 22/3/4 21/3/4
f 22/3/4 23/3/4 24/3/4
f 25/2/3 20/2/3 19/2/3
f 20/2/3 25/2/3 26/2/3
f 29/6/13 28/4/12 27/4/12
f 28/4/12 29/6/13 30/6/13
f 31/5/7 19/2/7 17/1/7
f 31/5/7 25/2/7 19/2/7
f 25/2/7 31/5/7 22/3/7
f 29/6/7 22/3/7 31/5/7
f 22/3/7 29/6/7 21/3/7
f 21/3/7 29/6/7 27/4/7
f 26/2/2 22/3/2 24/3/2
f 22/3/2 26/2/2 25/2/2
f 30/6/9 23/3/9 28/4/9
f 30/6/9 24/3/9 23/3/9
f 24/3/9 30/6/9 26/2/9
f 32/5/9 26/2/9 30/6/9
f 26/2/9 32/5/9 20/2/9
f 20/2/9 32/5/9 18/1/9
f 18/1/11 31/5/14 17/1/11
f 31/5/14 18/1/11 32/5/14
f 27/4/12 23/3/5 21/3/5
f 23/3/5 27/4/12 28/4/12
f 35/3/4 34/7/15 33/7/15
f 34/7/15 35/3/4 36/3/4
f 39/7/16 38/8/9 37/7/16
f 38/8/9 39/7/16 40/8/9
f 40/8/9 41/9/17 38/8/9
f 41/9/17 40/8/9 42/9/17
f 39/7/16 36/3/4 35/3/4
f 36/3/4 39/7/16 37/7/16
f 45/2/3 44/9/18 43/9/18
f 44/9/18 45/2/3 46/2/3
f 41/9/17 46/2/3 45/2/3
f 46/2/3 41/9/17 42/9/17
f 44/9/18 47/8/7 43/9/18
f 47/8/7 44/9/18 48/8/7
f 48/8/7 34/7/15 47/8/7
f 34/7/15 48/8/7 33/7/15
f 51/3/4 50/7/15 49/7/15
f 50/7/15 51/3/4 52/3/4
f 55/7/16 54/8/9 53/7/16
f 54/8/9 55/7/16 56/8/9
f 56/8/9 57/9/17 54/8/9
f 57/9/17 56/8/9 58/9/17
f 55/7/16 52/3/4 51/3/4
f 52/3/4 55/7/16 53/7/16
f 61/2/3 60/9/18 59/9/18
f 60/9/18 61/2/3 62/2/3
f 57/9/17 62/2/3 61/2/3
f 62/2/3 57/9/17 58/9/17
f 60/9/18 38/8/7 59/9/18
f 38/8/7 60/9/18 40/8/7
f 40/8/7 50/7/15 38/8/7
f 50/7/15 40/8/7 49/7/15
f 65/3/4 64/7/15 63/7/15
f 64/7/15 65/3/4 66/3/4
f 69/7/16 68/8/9 67/7/16
f 68/8/9 69/7/16 70/8/9
f 70/8/9 71/9/17 68/8/9
f 71/9/17 70/8/9 72/9/17
f 69/7/16 66/3/4 65/3/4
f 66/3/4 69/7/16 67/7/16
f 75/2/3 74/9/18 73/9/18
f 74/9/18 75/2/3 76/2/3
f 71/9/17 76/2/3 75/2/3
f 76/2/3 71/9/17 72/9/17
f 74/9/18 77/8/7 73/9/18
f 77/8/7 74/9/18 78/8/7
f 78/8/7 64/7/15 77/8/7
f 64/7/15 78/8/7 63/7/15
f 81/3/4 80/7/15 79/7/15
f 80/7/15 81/3/4 82/3/4
f 84/7/16 77/8/9 83/7/16
f 77/8/9 84/7/16 78/8/9
f 78/8/9 85/9/17 77/8/9
f 85/9/17 78/8/9 86/9/17
f 84/7/16 82/3/4 81/3/4
f 82/3/4 84/7/16 83/7/16
f 89/2/3 88/9/18 87/9/18
f 88/9/18 89/2/3 90/2/3
f 85/9/17 90/2/3 89/2/3
f 90/2/3 85/9/17 86/9/17
f 88/9/18 91/8/7 87/9/18
f 91/8/7 88/9/18 92/8/7
f 92/8/7 80/7/15 91/8/7
f 80/7/15 92/8/7 79/7/15
f 15/11/2 14/10/2 16/10/2
f 14/10/2 15/11/2 13/11/2
f 31/11/5 30/10/5 29/10/5
f 30/10/5 31/11/5 32/11/5
f 95/13/2 94/13/2 93/12/2
f 94/13/2 95/13/2 96/14/2
f 96/14/2 95/13/2 97/14/2
f 96/14/2 97/14/2 98/15/2
f 98/15/2 97/14/2 99/15/2
f 98/15/2 99/15/2 100/16/2
f 103/13/5 102/13/5 101/12/5
f 102/13/5 103/13/5 104/14/5
f 102/13/5 104/14/5 105/14/5
f 105/14/5 104/14/5 106/15/5
f 105/14/5 106/15/5 107/15/5
f 107/15/5 106/15/5 108/16/5
f 102/13/16 35/12/4 101/12/4
f 35/12/4 102/13/16 39/13/16
f 105/14/9 42/15/17 40/14/9
f 42/15/17 105/14/9 107/15/17
f 46/16/3 106/15/18 44/15/18
f 106/15/18 46/16/3 108/16/3
f 104/14/7 33/13/15 48/14/7
f 33/13/15 104/14/7 103/13/15
f 101/12/4 33/13/15 103/13/15
f 33/13/15 101/12/4 35/12/4
f 42/15/17 108/16/3 46/16/3
f 108/16/3 42/15/17 107/15/17
f 102/13/16 40/14/9 39/13/16
f 40/14/9 102/13/16 105/14/9
f 106/15/18 48/14/7 44/15/18
f 48/14/7 106/15/18 104/14/7
f 109/13/16 97/14/9 95/13/16
f 97/14/9 109/13/16 110/14/9
f 111/15/18 96/14/7 98/15/18
f 96/14/7 111/15/18 112/14/7
f 109/13/16 93/12/4 113/12/4
f 93/12/4 109/13/16 95/13/16
f 110/14/9 99/15/17 97/14/9
f 99/15/17 110/14/9 114/15/17
f 112/14/7 94/13/15 96/14/7
f 94/13/15 112/14/7 115/13/15
f 100/16/3 111/15/18 98/15/18
f 111/15/18 100/16/3 116/16/3
f 113/12/4 94/13/15 115/13/15
f 94/13/15 113/12/4 93/12/4
f 99/15/17 116/16/3 100/16/3
f 116/16/3 99/15/17 114/15/17
f 119/13/2 118/13/2 117/12/2
f 118/13/2 119/13/2 97/14/2
f 97/14/2 119/13/2 120/14/2
f 97/14/2 120/14/2 121/15/2
f 121/15/2 120/14/2 122/15/2
f 121/15/2 122/15/2 123/16/2
f 126/13/5 125/13/5 124/12/5
f 125/13/5 126/13/5 105/14/5
f 125/13/5 105/14/5 127/14/5
f 127/14/5 105/14/5 128/15/5
f 127/14/5 128/15/5 129/15/5
f 129/15/5 128/15/5 130/16/5
f 125/13/16 51/12/4 124/12/4
f 51/12/4 125/13/16 131/13/16
f 127/14/9 132/15/17 56/14/9
f 132/15/17 127/14/9 129/15/17
f 62/16/3 128/15/18 60/15/18
f 128/15/18 62/16/3 130/16/3
f 105/14/7 49/13/15 40/14/7
f 49/13/15 105/14/7 126/13/15
f 124/12/4 49/13/15 126/13/15
f 49/13/15 124/12/4 51/12/4
f 132/15/17 130/16/3 62/16/3
f 130/16/3 132/15/17 129/15/17
f 125/13/16 56/14/9 131/13/16
f 56/14/9 125/13/16 127/14/9
f 128/15/18 40/14/7 60/15/18
f 40/14/7 128/15/18 105/14/7
f 133/13/16 120/14/9 119/13/16
f 120/14/9 133/13/16 134/14/9
f 135/15/18 97/14/7 121/15/18
f 97/14/7 135/15/18 110/14/7
f 133/13/16 117/12/4 136/12/4
f 117/12/4 133/13/16 119/13/16
f 134/14/9 122/15/17 120/14/9
f 122/15/17 134/14/9 137/15/17
f 110/14/7 118/13/15 97/14/7
f 118/13/15 110/14/7 138/13/15
f 123/16/3 135/15/18 121/15/18
f 135/15/18 123/16/3 139/16/3
f 136/12/4 118/13/15 138/13/15
f 118/13/15 136/12/4 117/12/4
f 122/15/17 139/16/3 123/16/3
f 139/16/3 122/15/17 137/15/17
f 142/13/2 141/13/2 140/12/2
f 141/13/2 142/13/2 120/14/2
f 120/14/2 142/13/2 143/14/2
f 120/14/2 143/14/2 144/15/2
f 144/15/2 143/14/2 145/15/2
f 144/15/2 145/15/2 146/16/2
f 149/13/5 148/13/5 147/12/5
f 148/13/5 149/13/5 127/14/5
f 148/13/5 127/14/5 150/14/5
f 150/14/5 127/14/5 151/15/5
f 150/14/5 151/15/5 152/15/5
f 152/15/5 151/15/5 153/16/5
f 148/13/16 81/12/4 147/12/4
f 81/12/4 148/13/16 84/13/16
f 150/14/9 86/15/17 78/14/9
f 86/15/17 150/14/9 152/15/17
f 90/16/3 151/15/18 88/15/18
f 151/15/18 90/16/3 153/16/3
f 127/14/7 79/13/15 56/14/7
f 79/13/15 127/14/7 149/13/15
f 147/12/4 79/13/15 149/13/15
f 79/13/15 147/12/4 81/12/4
f 86/15/17 153/16/3 90/16/3
f 153/16/3 86/15/17 152/15/17
f 148/13/16 78/14/9 84/13/16
f 78/14/9 148/13/16 150/14/9
f 151/15/18 56/14/7 88/15/18
f 56/14/7 151/15/18 127/14/7
f 154/13/16 143/14/9 142/13/16
f 143/14/9 154/13/16 155/14/9
f 156/15/18 120/14/7 144/15/18
f 120/14/7 156/15/18 134/14/7
f 154/13/16 140/12/4 157/12/4
f 140/12/4 154/13/16 142/13/16
f 155/14/9 145/15/17 143/14/9
f 145/15/17 155/14/9 158/15/17
f 134/14/7 141/13/15 120/14/7
f 141/13/15 134/14/7 159/13/15
f 146/16/3 156/15/18 144/15/18
f 156/15/18 146/16/3 160/16/3
f 157/12/4 141/13/15 159/13/15
f 141/13/15 157/12/4 140/12/4
f 145/15/17 160/16/3 146/16/3
f 160/16/3 145/15/17 158/15/17
f 163/13/2 162/13/2 161/12/2
f 162/13/2 163/13/2 143/14/2
f 143/14/2 163/13/2 164/14/2
f 143/14/2 164/14/2 165/15/2
f 165/15/2 164/14/2 166/15/2
f 165/15/2 166/15/2 167/16/2
f 170/13/5 169/13/5 168/12/5
f 169/13/5 170/13/5 150/14/5
f 169/13/5 150/14/5 171/14/5
f 171/14/5 150/14/5 172/15/5
f 171/14/5 172/15/5 173/15/5
f 173/15/5 172/15/5 174/16/5
f 169/13/16 65/12/4 168/12/4
f 65/12/4 169/13/16 69/13/16
f 171/14/9 72/15/17 70/14/9
f 72/15/17 171/14/9 173/15/17
f 76/16/3 172/15/18 74/15/18
f 172/15/18 76/16/3 174/16/3
f 150/14/7 63/13/15 78/14/7
f 63/13/15 150/14/7 170/13/15
f 168/12/4 63/13/15 170/13/15
f 63/13/15 168/12/4 65/12/4
f 72/15/17 174/16/3 76/16/3
f 174/16/3 72/15/17 173/15/17
f 169/13/16 70/14/9 69/13/16
f 70/14/9 169/13/16 171/14/9
f 172/15/18 78/14/7 74/15/18
f 78/14/7 172/15/18 150/14/7
f 175/13/16 164/14/9 163/13/16
f 164/14/9 175/13/16 176/14/9
f 177/15/18 143/14/7 165/15/18
f 143/14/7 177/15/18 155/14/7
f 175/13/16 161/12/4 178/12/4
f 161/12/4 175/13/16 163/13/16
f 176/14/9 166/15/17 164/14/9
f 166/15/17 176/14/9 179/15/17
f 155/14/7 162/13/15 143/14/7
f 162/13/15 155/14/7 180/13/15
f 167/16/3 177/15/18 165/15/18
f 177/15/18 167/16/3 181/16/3
f 178/12/4 162/13/15 180/13/15
f 162/13/15 178/12/4 161/12/4
f 166/15/17 181/16/3 167/16/3
f 181/16/3 166/15/17 179/15/17

