# Created by Kenney (www.kenney.nl)

mtllib conveyor-bars-high.mtl

g conveyor-bars-high

v -0.5 0.3 -0.5 1 1 1
v 0.5 0.3 -0.5 1 1 1
v -0.5 0.4 -0.5 1 1 1
v 0.5 0.4 -0.5 1 1 1
v 0.5 0.4 -0.4 1 1 1
v -0.5 0.4 -0.4 1 1 1
v 0.5 0 -0.4 1 1 1
v 0.5 0 -0.5 1 1 1
v -0.5 0 -0.4 1 1 1
v -0.5 0 -0.5 1 1 1
v -0.5 0.1 -0.5 1 1 1
v 0.5 0.1 -0.5 1 1 1
v 0.5 0.275 -0.45 1 1 1
v 0.5 0.125 -0.45 1 1 1
v -0.5 0.275 -0.45 1 1 1
v -0.5 0.125 -0.45 1 1 1
v 0.5 0.3 0.5 1 1 1
v -0.5 0.3 0.5 1 1 1
v 0.5 0.4 0.5 1 1 1
v -0.5 0.4 0.5 1 1 1
v 0.5 4.511946E-17 0.5 1 1 1
v 0.5 4.511946E-17 0.4 1 1 1
v -0.5 4.511946E-17 0.5 1 1 1
v -0.5 4.511946E-17 0.4 1 1 1
v 0.5 0.4 0.4 1 1 1
v -0.5 0.4 0.4 1 1 1
v 0.5 0.1 0.5 1 1 1
v -0.5 0.1 0.5 1 1 1
v 0.5 0.125 0.45 1 1 1
v -0.5 0.125 0.45 1 1 1
v 0.5 0.275 0.45 1 1 1
v -0.5 0.275 0.45 1 1 1
v -0.375 0.1 0.4 1 1 1
v -0.375 0.1 -0.4 1 1 1
v -0.4785534 0.1214466 0.4 1 1 1
v -0.4785534 0.1214466 -0.4 1 1 1
v -0.5 0.225 -0.4 1 1 1
v -0.4785534 0.3285534 -0.4 1 1 1
v -0.5 0.225 0.4 1 1 1
v -0.4785534 0.3285534 0.4 1 1 1
v -0.2714466 0.3285534 -0.4 1 1 1
v -0.2714466 0.3285534 0.4 1 1 1
v -0.375 0.35 -0.4 1 1 1
v -0.375 0.35 0.4 1 1 1
v -0.25 0.225 -0.4 1 1 1
v -0.2714466 0.1214466 -0.4 1 1 1
v -0.25 0.225 0.4 1 1 1
v -0.2714466 0.1214466 0.4 1 1 1
v -0.125 0.1 0.4 1 1 1
v -0.125 0.1 -0.4 1 1 1
v -0.2285534 0.1214466 0.4 1 1 1
v -0.2285534 0.1214466 -0.4 1 1 1
v -0.2285534 0.3285534 -0.4 1 1 1
v -0.2285534 0.3285534 0.4 1 1 1
v -0.02144661 0.3285534 -0.4 1 1 1
v -0.02144661 0.3285534 0.4 1 1 1
v -0.125 0.35 -0.4 1 1 1
v -0.125 0.35 0.4 1 1 1
v 0 0.225 -0.4 1 1 1
v -0.02144661 0.1214466 -0.4 1 1 1
v 0 0.225 0.4 1 1 1
v -0.02144661 0.1214466 0.4 1 1 1
v 0.375 0.1 0.4 1 1 1
v 0.375 0.1 -0.4 1 1 1
v 0.2714466 0.1214466 0.4 1 1 1
v 0.2714466 0.1214466 -0.4 1 1 1
v 0.25 0.225 -0.4 1 1 1
v 0.2714466 0.3285534 -0.4 1 1 1
v 0.25 0.225 0.4 1 1 1
v 0.2714466 0.3285534 0.4 1 1 1
v 0.4785534 0.3285534 -0.4 1 1 1
v 0.4785534 0.3285534 0.4 1 1 1
v 0.375 0.35 -0.4 1 1 1
v 0.375 0.35 0.4 1 1 1
v 0.5 0.225 -0.4 1 1 1
v 0.4785534 0.1214466 -0.4 1 1 1
v 0.5 0.225 0.4 1 1 1
v 0.4785534 0.1214466 0.4 1 1 1
v 0.125 0.1 0.4 1 1 1
v 0.125 0.1 -0.4 1 1 1
v 0.02144661 0.1214466 0.4 1 1 1
v 0.02144661 0.1214466 -0.4 1 1 1
v 0.02144661 0.3285534 -0.4 1 1 1
v 0.02144661 0.3285534 0.4 1 1 1
v 0.2285534 0.3285534 -0.4 1 1 1
v 0.2285534 0.3285534 0.4 1 1 1
v 0.125 0.35 -0.4 1 1 1
v 0.125 0.35 0.4 1 1 1
v 0.2285534 0.1214466 -0.4 1 1 1
v 0.2285534 0.1214466 0.4 1 1 1

vn 0 -0.5257311 -0.8506508
vn 0 0 -1
vn 0 1 0
vn 0 -1 0
vn 0 0 1
vn 0 0.5257311 -0.8506508
vn 1 0 0
vn 0 -0.8944272 -0.4472136
vn -1 0 0
vn 0 0.8944272 -0.4472136
vn 0 -0.5257311 0.8506508
vn 0 0.5257311 0.8506508
vn 0 0.8944272 0.4472136
vn 0 -0.8944272 0.4472136
vn -0.7071068 -0.7071068 0
vn -0.7071068 0.7071068 0
vn 0.7071068 0.7071068 0
vn 0.7071068 -0.7071068 0

vt 0.21875 0.175
vt 0.21875 0.225
vt 0.21875 0.025
vt 0.21875 0.075
vt 0.21875 0.1625
vt 0.21875 0.0875
vt 0.09375 0.0875
vt 0.09375 0.1625
vt 0.09375 0.025
vt 0.09375 0.04215728
vt 0.09375 0.125
vt 0.09375 0.2078427
vt 0.09375 0.225

usemtl colormap

f 3/2/2 2/1/1 1/1/1
f 2/1/1 3/2/2 4/2/2
f 3/2/3 5/2/3 4/2/3
f 5/2/3 3/2/3 6/2/3
f 9/3/4 8/3/4 7/3/4
f 8/3/4 9/3/4 10/3/4
f 5/2/5 9/3/5 7/3/5
f 9/3/5 5/2/5 6/2/5
f 11/4/6 8/3/2 10/3/2
f 8/3/2 11/4/6 12/4/6
f 5/2/7 2/1/7 4/2/7
f 2/1/7 5/2/7 13/5/7
f 13/5/7 5/2/7 14/6/7
f 7/3/7 14/6/7 5/2/7
f 8/3/7 14/6/7 7/3/7
f 14/6/7 8/3/7 12/4/7
f 15/5/8 2/1/1 13/5/8
f 2/1/1 15/5/8 1/1/1
f 9/3/9 11/4/9 10/3/9
f 11/4/9 9/3/9 16/6/9
f 16/6/9 9/3/9 15/5/9
f 6/2/9 15/5/9 9/3/9
f 3/2/9 15/5/9 6/2/9
f 15/5/9 3/2/9 1/1/9
f 11/4/6 14/6/10 12/4/6
f 14/6/10 11/4/6 16/6/10
f 19/2/5 18/1/11 17/1/11
f 18/1/11 19/2/5 20/2/5
f 23/3/4 22/3/4 21/3/4
f 22/3/4 23/3/4 24/3/4
f 25/2/3 20/2/3 19/2/3
f 20/2/3 25/2/3 26/2/3
f 29/6/13 28/4/12 27/4/12
f 28/4/12 29/6/13 30/6/13
f 31/5/7 19/2/7 17/1/7
f 31/5/7 25/2/7 19/2/7
f 25/2/7 31/5/7 22/3/7
f 29/6/7 22/3/7 31/5/7
f 22/3/7 29/6/7 21/3/7
f 21/3/7 29/6/7 27/4/7
f 26/2/2 22/3/2 24/3/2
f 22/3/2 26/2/2 25/2/2
f 30/6/9 23/3/9 28/4/9
f 30/6/9 24/3/9 23/3/9
f 24/3/9 30/6/9 26/2/9
f 32/5/9 26/2/9 30/6/9
f 26/2/9 32/5/9 20/2/9
f 20/2/9 32/5/9 18/1/9
f 18/1/11 31/5/14 17/1/11
f 31/5/14 18/1/11 32/5/14
f 27/4/12 23/3/5 21/3/5
f 23/3/5 27/4/12 28/4/12
f 15/8/2 14/7/2 16/7/2
f 14/7/2 15/8/2 13/8/2
f 31/8/5 30/7/5 29/7/5
f 30/7/5 31/8/5 32/8/5
f 35/10/15 34/9/4 33/9/4
f 34/9/4 35/10/15 36/10/15
f 39/11/9 38/12/16 37/11/9
f 38/12/16 39/11/9 40/12/16
f 43/13/3 42/12/17 41/12/17
f 42/12/17 43/13/3 44/13/3
f 47/11/7 46/10/18 45/11/7
f 46/10/18 47/11/7 48/10/18
f 33/9/4 46/10/18 48/10/18
f 46/10/18 33/9/4 34/9/4
f 38/12/16 44/13/3 43/13/3
f 44/13/3 38/12/16 40/12/16
f 35/10/15 37/11/9 36/10/15
f 37/11/9 35/10/15 39/11/9
f 42/12/17 45/11/7 41/12/17
f 45/11/7 42/12/17 47/11/7
f 51/10/15 50/9/4 49/9/4
f 50/9/4 51/10/15 52/10/15
f 47/11/9 53/12/16 45/11/9
f 53/12/16 47/11/9 54/12/16
f 57/13/3 56/12/17 55/12/17
f 56/12/17 57/13/3 58/13/3
f 61/11/7 60/10/18 59/11/7
f 60/10/18 61/11/7 62/10/18
f 49/9/4 60/10/18 62/10/18
f 60/10/18 49/9/4 50/9/4
f 53/12/16 58/13/3 57/13/3
f 58/13/3 53/12/16 54/12/16
f 51/10/15 45/11/9 52/10/15
f 45/11/9 51/10/15 47/11/9
f 56/12/17 59/11/7 55/12/17
f 59/11/7 56/12/17 61/11/7
f 65/10/15 64/9/4 63/9/4
f 64/9/4 65/10/15 66/10/15
f 69/11/9 68/12/16 67/11/9
f 68/12/16 69/11/9 70/12/16
f 73/13/3 72/12/17 71/12/17
f 72/12/17 73/13/3 74/13/3
f 77/11/7 76/10/18 75/11/7
f 76/10/18 77/11/7 78/10/18
f 63/9/4 76/10/18 78/10/18
f 76/10/18 63/9/4 64/9/4
f 68/12/16 74/13/3 73/13/3
f 74/13/3 68/12/16 70/12/16
f 65/10/15 67/11/9 66/10/15
f 67/11/9 65/10/15 69/11/9
f 72/12/17 75/11/7 71/12/17
f 75/11/7 72/12/17 77/11/7
f 81/10/15 80/9/4 79/9/4
f 80/9/4 81/10/15 82/10/15
f 61/11/9 83/12/16 59/11/9
f 83/12/16 61/11/9 84/12/16
f 87/13/3 86/12/17 85/12/17
f 86/12/17 87/13/3 88/13/3
f 69/11/7 89/10/18 67/11/7
f 89/10/18 69/11/7 90/10/18
f 79/9/4 89/10/18 90/10/18
f 89/10/18 79/9/4 80/9/4
f 83/12/16 88/13/3 87/13/3
f 88/13/3 83/12/16 84/12/16
f 81/10/15 59/11/9 82/10/15
f 59/11/9 81/10/15 61/11/9
f 86/12/17 67/11/7 85/12/17
f 67/11/7 86/12/17 69/11/7

g conveyor-bars-high




usemtl colormap

f 3/2/2 2/1/1 1/1/1
f 2/1/1 3/2/2 4/2/2
f 3/2/3 5/2/3 4/2/3
f 5/2/3 3/2/3 6/2/3
f 9/3/4 8/3/4 7/3/4
f 8/3/4 9/3/4 10/3/4
f 5/2/5 9/3/5 7/3/5
f 9/3/5 5/2/5 6/2/5
f 11/4/6 8/3/2 10/3/2
f 8/3/2 11/4/6 12/4/6
f 5/2/7 2/1/7 4/2/7
f 2/1/7 5/2/7 13/5/7
f 13/5/7 5/2/7 14/6/7
f 7/3/7 14/6/7 5/2/7
f 8/3/7 14/6/7 7/3/7
f 14/6/7 8/3/7 12/4/7
f 15/5/8 2/1/1 13/5/8
f 2/1/1 15/5/8 1/1/1
f 9/3/9 11/4/9 10/3/9
f 11/4/9 9/3/9 16/6/9
f 16/6/9 9/3/9 15/5/9
f 6/2/9 15/5/9 9/3/9
f 3/2/9 15/5/9 6/2/9
f 15/5/9 3/2/9 1/1/9
f 11/4/6 14/6/10 12/4/6
f 14/6/10 11/4/6 16/6/10
f 19/2/5 18/1/11 17/1/11
f 18/1/11 19/2/5 20/2/5
f 23/3/4 22/3/4 21/3/4
f 22/3/4 23/3/4 24/3/4
f 25/2/3 20/2/3 19/2/3
f 20/2/3 25/2/3 26/2/3
f 29/6/13 28/4/12 27/4/12
f 28/4/12 29/6/13 30/6/13
f 31/5/7 19/2/7 17/1/7
f 31/5/7 25/2/7 19/2/7
f 25/2/7 31/5/7 22/3/7
f 29/6/7 22/3/7 31/5/7
f 22/3/7 29/6/7 21/3/7
f 21/3/7 29/6/7 27/4/7
f 26/2/2 22/3/2 24/3/2
f 22/3/2 26/2/2 25/2/2
f 30/6/9 23/3/9 28/4/9
f 30/6/9 24/3/9 23/3/9
f 24/3/9 30/6/9 26/2/9
f 32/5/9 26/2/9 30/6/9
f 26/2/9 32/5/9 20/2/9
f 20/2/9 32/5/9 18/1/9
f 18/1/11 31/5/14 17/1/11
f 31/5/14 18/1/11 32/5/14
f 27/4/12 23/3/5 21/3/5
f 23/3/5 27/4/12 28/4/12
f 15/8/2 14/7/2 16/7/2
f 14/7/2 15/8/2 13/8/2
f 31/8/5 30/7/5 29/7/5
f 30/7/5 31/8/5 32/8/5
f 35/10/15 34/9/4 33/9/4
f 34/9/4 35/10/15 36/10/15
f 39/11/9 38/12/16 37/11/9
f 38/12/16 39/11/9 40/12/16
f 43/13/3 42/12/17 41/12/17
f 42/12/17 43/13/3 44/13/3
f 47/11/7 46/10/18 45/11/7
f 46/10/18 47/11/7 48/10/18
f 33/9/4 46/10/18 48/10/18
f 46/10/18 33/9/4 34/9/4
f 38/12/16 44/13/3 43/13/3
f 44/13/3 38/12/16 40/12/16
f 35/10/15 37/11/9 36/10/15
f 37/11/9 35/10/15 39/11/9
f 42/12/17 45/11/7 41/12/17
f 45/11/7 42/12/17 47/11/7
f 51/10/15 50/9/4 49/9/4
f 50/9/4 51/10/15 52/10/15
f 47/11/9 53/12/16 45/11/9
f 53/12/16 47/11/9 54/12/16
f 57/13/3 56/12/17 55/12/17
f 56/12/17 57/13/3 58/13/3
f 61/11/7 60/10/18 59/11/7
f 60/10/18 61/11/7 62/10/18
f 49/9/4 60/10/18 62/10/18
f 60/10/18 49/9/4 50/9/4
f 53/12/16 58/13/3 57/13/3
f 58/13/3 53/12/16 54/12/16
f 51/10/15 45/11/9 52/10/15
f 45/11/9 51/10/15 47/11/9
f 56/12/17 59/11/7 55/12/17
f 59/11/7 56/12/17 61/11/7
f 65/10/15 64/9/4 63/9/4
f 64/9/4 65/10/15 66/10/15
f 69/11/9 68/12/16 67/11/9
f 68/12/16 69/11/9 70/12/16
f 73/13/3 72/12/17 71/12/17
f 72/12/17 73/13/3 74/13/3
f 77/11/7 76/10/18 75/11/7
f 76/10/18 77/11/7 78/10/18
f 63/9/4 76/10/18 78/10/18
f 76/10/18 63/9/4 64/9/4
f 68/12/16 74/13/3 73/13/3
f 74/13/3 68/12/16 70/12/16
f 65/10/15 67/11/9 66/10/15
f 67/11/9 65/10/15 69/11/9
f 72/12/17 75/11/7 71/12/17
f 75/11/7 72/12/17 77/11/7
f 81/10/15 80/9/4 79/9/4
f 80/9/4 81/10/15 82/10/15
f 61/11/9 83/12/16 59/11/9
f 83/12/16 61/11/9 84/12/16
f 87/13/3 86/12/17 85/12/17
f 86/12/17 87/13/3 88/13/3
f 69/11/7 89/10/18 67/11/7
f 89/10/18 69/11/7 90/10/18
f 79/9/4 89/10/18 90/10/18
f 89/10/18 79/9/4 80/9/4
f 83/12/16 88/13/3 87/13/3
f 88/13/3 83/12/16 84/12/16
f 81/10/15 59/11/9 82/10/15
f 59/11/9 81/10/15 61/11/9
f 86/12/17 67/11/7 85/12/17
f 67/11/7 86/12/17 69/11/7

