# Created by Kenney (www.kenney.nl)

mtllib conveyor-bars-fence.mtl

g conveyor-bars-fence

v -0.5 0.3 -0.5 1 1 1
v 0.5 0.3 -0.5 1 1 1
v -0.5 0.4 -0.5 1 1 1
v 0.5 0.4 -0.5 1 1 1
v 0.5 0.4 -0.4 1 1 1
v -0.5 0.4 -0.4 1 1 1
v 0.5 0 -0.4 1 1 1
v 0.5 0 -0.5 1 1 1
v -0.5 0 -0.4 1 1 1
v -0.5 0 -0.5 1 1 1
v -0.5 0.1 -0.5 1 1 1
v 0.5 0.1 -0.5 1 1 1
v 0.5 0.275 -0.45 1 1 1
v 0.5 0.125 -0.45 1 1 1
v -0.5 0.275 -0.45 1 1 1
v -0.5 0.125 -0.45 1 1 1
v 0.5 0.3 0.5 1 1 1
v -0.5 0.3 0.5 1 1 1
v 0.5 0.4 0.5 1 1 1
v -0.5 0.4 0.5 1 1 1
v 0.5 4.511946E-17 0.5 1 1 1
v 0.5 4.511946E-17 0.4 1 1 1
v -0.5 4.511946E-17 0.5 1 1 1
v -0.5 4.511946E-17 0.4 1 1 1
v 0.5 0.4 0.4 1 1 1
v -0.5 0.4 0.4 1 1 1
v 0.5 0.1 0.5 1 1 1
v -0.5 0.1 0.5 1 1 1
v 0.5 0.125 0.45 1 1 1
v -0.5 0.125 0.45 1 1 1
v 0.5 0.275 0.45 1 1 1
v -0.5 0.275 0.45 1 1 1
v 0.075 0.15 0.5999996 1 1 1
v 0.075 0.3 0.5999996 1 1 1
v 0.125 0.1707107 0.5499996 1 1 1
v 0.125 0.3 0.5499996 1 1 1
v -0.075 0.15 0.5999996 1 1 1
v -0.075 0.1 0.5499996 1 1 1
v -0.125 0.1707107 0.5499996 1 1 1
v -0.125 0.1 0.4792889 1 1 1
v 0.075 0.1 0.5499996 1 1 1
v 0.125 0.1 0.4792889 1 1 1
v -0.125 0.3 0.5499996 1 1 1
v -0.125 0.3 0.4499996 1 1 1
v -0.075 0.3 0.5999996 1 1 1
v 0.125 0.3 0.4499996 1 1 1
v -0.125 0.1 0.4499996 1 1 1
v 0.125 0.1 0.4499996 1 1 1
v -0.075 0.15 -0.5999996 1 1 1
v -0.075 0.3 -0.5999996 1 1 1
v -0.125 0.1707107 -0.5499996 1 1 1
v -0.125 0.3 -0.5499996 1 1 1
v 0.075 0.15 -0.5999996 1 1 1
v 0.075 0.1 -0.5499996 1 1 1
v 0.125 0.1707107 -0.5499996 1 1 1
v 0.125 0.1 -0.4792889 1 1 1
v -0.075 0.1 -0.5499996 1 1 1
v -0.125 0.1 -0.4792889 1 1 1
v 0.125 0.3 -0.5499996 1 1 1
v 0.125 0.3 -0.4499996 1 1 1
v 0.075 0.3 -0.5999996 1 1 1
v -0.125 0.3 -0.4499996 1 1 1
v 0.125 0.1 -0.4499996 1 1 1
v -0.125 0.1 -0.4499996 1 1 1
v -0.1 0.6 0.5000004 1 1 1
v -0.1 0.6 0.5500004 1 1 1
v 0.1 0.6 0.5000004 1 1 1
v -0.075 0.6 0.5750004 1 1 1
v 0.075 0.6 0.5750004 1 1 1
v 0.1 0.6 0.5500004 1 1 1
v -0.1 0.7 0.5500004 1 1 1
v -0.1 0.7 0.5000004 1 1 1
v -0.075 0.7 0.5750004 1 1 1
v 0.1 0.7 0.5000004 1 1 1
v 0.075 0.7 0.5750004 1 1 1
v 0.1 0.7 0.5500004 1 1 1
v 0.1 0.6 -0.5000004 1 1 1
v 0.1 0.6 -0.5500004 1 1 1
v -0.1 0.6 -0.5000004 1 1 1
v 0.075 0.6 -0.5750004 1 1 1
v -0.075 0.6 -0.5750004 1 1 1
v -0.1 0.6 -0.5500004 1 1 1
v 0.1 0.7 -0.5500004 1 1 1
v 0.1 0.7 -0.5000004 1 1 1
v 0.075 0.7 -0.5750004 1 1 1
v -0.1 0.7 -0.5000004 1 1 1
v -0.075 0.7 -0.5750004 1 1 1
v -0.1 0.7 -0.5500004 1 1 1
v -0.3749999 0.1 0.4 1 1 1
v -0.3749999 0.1 -0.4 1 1 1
v -0.4785533 0.1214466 0.4 1 1 1
v -0.4785533 0.1214466 -0.4 1 1 1
v -0.4999999 0.225 -0.4 1 1 1
v -0.4785533 0.3285534 -0.4 1 1 1
v -0.4999999 0.225 0.4 1 1 1
v -0.4785533 0.3285534 0.4 1 1 1
v -0.2714466 0.3285534 -0.4 1 1 1
v -0.2714466 0.3285534 0.4 1 1 1
v -0.3749999 0.35 -0.4 1 1 1
v -0.3749999 0.35 0.4 1 1 1
v -0.2499999 0.225 -0.4 1 1 1
v -0.2714466 0.1214466 -0.4 1 1 1
v -0.2499999 0.225 0.4 1 1 1
v -0.2714466 0.1214466 0.4 1 1 1
v -0.125 0.1 0.4 1 1 1
v -0.125 0.1 -0.4 1 1 1
v -0.2285534 0.1214466 0.4 1 1 1
v -0.2285534 0.1214466 -0.4 1 1 1
v -0.25 0.225 -0.4 1 1 1
v -0.2285534 0.3285534 -0.4 1 1 1
v -0.25 0.225 0.4 1 1 1
v -0.2285534 0.3285534 0.4 1 1 1
v -0.02144657 0.3285534 -0.4 1 1 1
v -0.02144657 0.3285534 0.4 1 1 1
v -0.125 0.35 -0.4 1 1 1
v -0.125 0.35 0.4 1 1 1
v 3.72529E-08 0.225 -0.4 1 1 1
v -0.02144657 0.1214466 -0.4 1 1 1
v 3.72529E-08 0.225 0.4 1 1 1
v -0.02144657 0.1214466 0.4 1 1 1
v 0.375 0.1 0.4 1 1 1
v 0.375 0.1 -0.4 1 1 1
v 0.2714466 0.1214466 0.4 1 1 1
v 0.2714466 0.1214466 -0.4 1 1 1
v 0.25 0.225 -0.4 1 1 1
v 0.2714466 0.3285534 -0.4 1 1 1
v 0.25 0.225 0.4 1 1 1
v 0.2714466 0.3285534 0.4 1 1 1
v 0.4785534 0.3285534 -0.4 1 1 1
v 0.4785534 0.3285534 0.4 1 1 1
v 0.375 0.35 -0.4 1 1 1
v 0.375 0.35 0.4 1 1 1
v 0.5 0.225 -0.4 1 1 1
v 0.4785534 0.1214466 -0.4 1 1 1
v 0.5 0.225 0.4 1 1 1
v 0.4785534 0.1214466 0.4 1 1 1
v 0.125 0.1 0.4 1 1 1
v 0.125 0.1 -0.4 1 1 1
v 0.02144664 0.1214466 0.4 1 1 1
v 0.02144664 0.1214466 -0.4 1 1 1
v 2.980232E-08 0.225 -0.4 1 1 1
v 0.02144664 0.3285534 -0.4 1 1 1
v 2.980232E-08 0.225 0.4 1 1 1
v 0.02144664 0.3285534 0.4 1 1 1
v 0.2285534 0.3285534 -0.4 1 1 1
v 0.2285534 0.3285534 0.4 1 1 1
v 0.125 0.35 -0.4 1 1 1
v 0.125 0.35 0.4 1 1 1
v 0.2285534 0.1214466 -0.4 1 1 1
v 0.2285534 0.1214466 0.4 1 1 1
v -0.075 0.3 -0.5499996 1 1 1
v -0.075 0.8 -0.5499996 1 1 1
v -0.075 0.3 -0.4999996 1 1 1
v -0.075 0.8 -0.4999996 1 1 1
v 0.075 0.3 -0.5499996 1 1 1
v 0.075 0.8 -0.5499996 1 1 1
v 0.075 0.8 -0.4999996 1 1 1
v 0.075 0.3 -0.4999996 1 1 1
v 0.075 0.3 0.5499996 1 1 1
v 0.075 0.8 0.5499996 1 1 1
v 0.075 0.3 0.4999996 1 1 1
v 0.075 0.8 0.4999996 1 1 1
v -0.075 0.3 0.5499996 1 1 1
v -0.075 0.8 0.5499996 1 1 1
v -0.075 0.8 0.4999996 1 1 1
v -0.075 0.3 0.4999996 1 1 1
v -0.5027962 0.55 0.4500004 1 1 1
v -0.5027962 0.55 0.5000004 1 1 1
v 0.4972038 0.55 0.4500004 1 1 1
v 0.4972038 0.55 0.5000004 1 1 1
v 0.4972038 0.75 0.5000004 1 1 1
v -0.5027962 0.75 0.5000004 1 1 1
v -0.5027962 0.75 0.4500004 1 1 1
v 0.4972038 0.75 0.4500004 1 1 1
v 0.5027962 0.55 -0.4500004 1 1 1
v 0.5027962 0.55 -0.5000004 1 1 1
v -0.4972038 0.55 -0.4500004 1 1 1
v -0.4972038 0.55 -0.5000004 1 1 1
v -0.4972038 0.75 -0.5000004 1 1 1
v 0.5027962 0.75 -0.5000004 1 1 1
v 0.5027962 0.75 -0.4500004 1 1 1
v -0.4972038 0.75 -0.4500004 1 1 1

vn 0 -0.5257311 -0.8506508
vn 0 0 -1
vn 0 1 0
vn 0 -1 0
vn 0 0 1
vn 0 0.5257311 -0.8506508
vn 1 0 0
vn 0 -0.8944272 -0.4472136
vn -1 0 0
vn 0 0.8944272 -0.4472136
vn 0 -0.5257311 0.8506508
vn 0 0.5257311 0.8506508
vn 0 0.8944272 0.4472136
vn 0 -0.8944272 0.4472136
vn 0.3688517 -0.3556998 0.8587352
vn 0.3826834 0 0.9238795
vn 0.8991193 -0.167502 0.4043856
vn 0.9238795 0 0.3826834
vn -0.3688517 -0.3556998 0.8587352
vn -0.4443524 -0.6334631 0.6334631
vn -0.8991193 -0.167502 0.4043856
vn -0.9760643 -0.1537832 0.1537832
vn 0.4443524 -0.6334631 0.6334631
vn 0.9760643 -0.1537832 0.1537832
vn -0.3826834 0 0.9238795
vn -0.9238795 0 0.3826834
vn -1 0 1.490127E-08
vn 1 0 -1.490127E-08
vn -1.490127E-08 0 -1
vn -0.3688517 -0.3556998 -0.8587352
vn -0.3826834 0 -0.9238795
vn -0.8991193 -0.167502 -0.4043856
vn -0.9238795 0 -0.3826834
vn 0.3688517 -0.3556998 -0.8587352
vn 0.4443524 -0.6334631 -0.6334631
vn 0.8991193 -0.167502 -0.4043856
vn 0.9760643 -0.1537832 -0.1537832
vn -0.4443524 -0.6334631 -0.6334631
vn -0.9760643 -0.1537832 -0.1537832
vn 0.3826834 0 -0.9238795
vn 0.9238795 0 -0.3826834
vn -0.7071068 -0.7071068 0
vn -0.7071068 0.7071068 0
vn 0.7071068 0.7071068 0
vn 0.7071068 -0.7071068 0
vn 1.490127E-08 0 1
vn -1.053679E-08 -0.7071068 -0.7071068
vn -1.053679E-08 0.7071068 -0.7071068
vn 0 -0.7071068 0.7071068
vn 0 0.7071068 0.7071068

vt 0.21875 0.175
vt 0.21875 0.225
vt 0.21875 0.025
vt 0.21875 0.075
vt 0.21875 0.1625
vt 0.21875 0.0875
vt 0.21875 0.1542893
vt 0.09375 0.0875
vt 0.09375 0.1625
vt 0.09375 0.025
vt 0.09375 0.04215728
vt 0.09375 0.125
vt 0.09375 0.2078427
vt 0.09375 0.225
vt 0.71875 0.325
vt 0.71875 0.425

usemtl colormap

f 3/2/2 2/1/1 1/1/1
f 2/1/1 3/2/2 4/2/2
f 3/2/3 5/2/3 4/2/3
f 5/2/3 3/2/3 6/2/3
f 9/3/4 8/3/4 7/3/4
f 8/3/4 9/3/4 10/3/4
f 5/2/5 9/3/5 7/3/5
f 9/3/5 5/2/5 6/2/5
f 11/4/6 8/3/2 10/3/2
f 8/3/2 11/4/6 12/4/6
f 5/2/7 2/1/7 4/2/7
f 2/1/7 5/2/7 13/5/7
f 13/5/7 5/2/7 14/6/7
f 7/3/7 14/6/7 5/2/7
f 8/3/7 14/6/7 7/3/7
f 14/6/7 8/3/7 12/4/7
f 15/5/8 2/1/1 13/5/8
f 2/1/1 15/5/8 1/1/1
f 9/3/9 11/4/9 10/3/9
f 11/4/9 9/3/9 16/6/9
f 16/6/9 9/3/9 15/5/9
f 6/2/9 15/5/9 9/3/9
f 3/2/9 15/5/9 6/2/9
f 15/5/9 3/2/9 1/1/9
f 11/4/6 14/6/10 12/4/6
f 14/6/10 11/4/6 16/6/10
f 19/2/5 18/1/11 17/1/11
f 18/1/11 19/2/5 20/2/5
f 23/3/4 22/3/4 21/3/4
f 22/3/4 23/3/4 24/3/4
f 25/2/3 20/2/3 19/2/3
f 20/2/3 25/2/3 26/2/3
f 29/6/13 28/4/12 27/4/12
f 28/4/12 29/6/13 30/6/13
f 31/5/7 19/2/7 17/1/7
f 31/5/7 25/2/7 19/2/7
f 25/2/7 31/5/7 22/3/7
f 29/6/7 22/3/7 31/5/7
f 22/3/7 29/6/7 21/3/7
f 21/3/7 29/6/7 27/4/7
f 26/2/2 22/3/2 24/3/2
f 22/3/2 26/2/2 25/2/2
f 30/6/9 23/3/9 28/4/9
f 30/6/9 24/3/9 23/3/9
f 24/3/9 30/6/9 26/2/9
f 32/5/9 26/2/9 30/6/9
f 26/2/9 32/5/9 20/2/9
f 20/2/9 32/5/9 18/1/9
f 18/1/11 31/5/14 17/1/11
f 31/5/14 18/1/11 32/5/14
f 27/4/12 23/3/5 21/3/5
f 23/3/5 27/4/12 28/4/12
f 35/7/17 34/3/16 33/1/15
f 34/3/16 35/7/17 36/3/18
f 39/7/21 38/2/20 37/1/19
f 38/2/20 39/7/21 40/2/22
f 41/2/23 35/7/17 33/1/15
f 35/7/17 41/2/23 42/2/24
f 45/3/3 44/3/3 43/3/3
f 44/3/3 45/3/3 46/3/3
f 46/3/3 45/3/3 34/3/3
f 46/3/3 34/3/3 36/3/3
f 41/2/23 37/1/19 38/2/20
f 37/1/19 41/2/23 33/1/15
f 43/3/26 37/1/19 45/3/25
f 37/1/19 43/3/26 39/7/21
f 48/2/4 40/2/4 47/2/4
f 40/2/4 48/2/4 38/2/4
f 38/2/4 48/2/4 41/2/4
f 41/2/4 48/2/4 42/2/4
f 34/3/16 37/1/19 33/1/15
f 37/1/19 34/3/16 45/3/25
f 44/3/27 39/7/21 43/3/26
f 39/7/21 44/3/27 40/2/22
f 40/2/22 44/3/27 47/2/27
f 42/2/24 36/3/18 35/7/17
f 36/3/18 42/2/24 46/3/28
f 46/3/28 42/2/24 48/2/28
f 44/3/29 48/2/29 47/2/29
f 48/2/29 44/3/29 46/3/29
f 51/7/32 50/3/31 49/1/30
f 50/3/31 51/7/32 52/3/33
f 55/7/36 54/2/35 53/1/34
f 54/2/35 55/7/36 56/2/37
f 57/2/38 51/7/32 49/1/30
f 51/7/32 57/2/38 58/2/39
f 61/3/3 60/3/3 59/3/3
f 60/3/3 61/3/3 62/3/3
f 62/3/3 61/3/3 50/3/3
f 62/3/3 50/3/3 52/3/3
f 57/2/38 53/1/34 54/2/35
f 53/1/34 57/2/38 49/1/30
f 59/3/41 53/1/34 61/3/40
f 53/1/34 59/3/41 55/7/36
f 64/2/4 56/2/4 63/2/4
f 56/2/4 64/2/4 54/2/4
f 54/2/4 64/2/4 57/2/4
f 57/2/4 64/2/4 58/2/4
f 50/3/31 53/1/34 49/1/30
f 53/1/34 50/3/31 61/3/40
f 60/3/7 55/7/36 59/3/41
f 55/7/36 60/3/7 56/2/37
f 56/2/37 60/3/7 63/2/7
f 58/2/39 52/3/33 51/7/32
f 52/3/33 58/2/39 62/3/9
f 62/3/9 58/2/39 64/2/9
f 60/3/5 64/2/5 63/2/5
f 64/2/5 60/3/5 62/3/5
f 67/4/4 66/4/4 65/4/4
f 66/4/4 67/4/4 68/4/4
f 68/4/4 67/4/4 69/4/4
f 69/4/4 67/4/4 70/4/4
f 72/1/27 66/4/26 71/1/26
f 66/4/26 72/1/27 65/4/27
f 73/1/3 72/1/3 71/1/3
f 72/1/3 73/1/3 74/1/3
f 74/1/3 73/1/3 75/1/3
f 74/1/3 75/1/3 76/1/3
f 70/4/18 75/1/16 69/4/16
f 75/1/16 70/4/18 76/1/18
f 67/4/28 76/1/18 70/4/18
f 76/1/18 67/4/28 74/1/28
f 71/1/26 68/4/25 73/1/25
f 68/4/25 71/1/26 66/4/26
f 75/1/16 68/4/25 69/4/16
f 68/4/25 75/1/16 73/1/25
f 79/4/4 78/4/4 77/4/4
f 78/4/4 79/4/4 80/4/4
f 80/4/4 79/4/4 81/4/4
f 81/4/4 79/4/4 82/4/4
f 84/1/7 78/4/41 83/1/41
f 78/4/41 84/1/7 77/4/7
f 85/1/3 84/1/3 83/1/3
f 84/1/3 85/1/3 86/1/3
f 86/1/3 85/1/3 87/1/3
f 86/1/3 87/1/3 88/1/3
f 82/4/33 87/1/31 81/4/31
f 87/1/31 82/4/33 88/1/33
f 79/4/9 88/1/33 82/4/33
f 88/1/33 79/4/9 86/1/9
f 83/1/41 80/4/40 85/1/40
f 80/4/40 83/1/41 78/4/41
f 87/1/31 80/4/40 81/4/31
f 80/4/40 87/1/31 85/1/40
f 15/9/2 14/8/2 16/8/2
f 14/8/2 15/9/2 13/9/2
f 31/9/5 30/8/5 29/8/5
f 30/8/5 31/9/5 32/9/5
f 91/11/42 90/10/4 89/10/4
f 90/10/4 91/11/42 92/11/42
f 95/12/9 94/13/43 93/12/9
f 94/13/43 95/12/9 96/13/43
f 99/14/3 98/13/44 97/13/44
f 98/13/44 99/14/3 100/14/3
f 103/12/7 102/11/45 101/12/7
f 102/11/45 103/12/7 104/11/45
f 89/10/4 102/11/45 104/11/45
f 102/11/45 89/10/4 90/10/4
f 94/13/43 100/14/3 99/14/3
f 100/14/3 94/13/43 96/13/43
f 91/11/42 93/12/9 92/11/42
f 93/12/9 91/11/42 95/12/9
f 98/13/44 101/12/7 97/13/44
f 101/12/7 98/13/44 103/12/7
f 107/11/42 106/10/4 105/10/4
f 106/10/4 107/11/42 108/11/42
f 111/12/9 110/13/43 109/12/9
f 110/13/43 111/12/9 112/13/43
f 115/14/3 114/13/44 113/13/44
f 114/13/44 115/14/3 116/14/3
f 119/12/7 118/11/45 117/12/7
f 118/11/45 119/12/7 120/11/45
f 105/10/4 118/11/45 120/11/45
f 118/11/45 105/10/4 106/10/4
f 110/13/43 116/14/3 115/14/3
f 116/14/3 110/13/43 112/13/43
f 107/11/42 109/12/9 108/11/42
f 109/12/9 107/11/42 111/12/9
f 114/13/44 117/12/7 113/13/44
f 117/12/7 114/13/44 119/12/7
f 123/11/42 122/10/4 121/10/4
f 122/10/4 123/11/42 124/11/42
f 127/12/9 126/13/43 125/12/9
f 126/13/43 127/12/9 128/13/43
f 131/14/3 130/13/44 129/13/44
f 130/13/44 131/14/3 132/14/3
f 135/12/7 134/11/45 133/12/7
f 134/11/45 135/12/7 136/11/45
f 121/10/4 134/11/45 136/11/45
f 134/11/45 121/10/4 122/10/4
f 126/13/43 132/14/3 131/14/3
f 132/14/3 126/13/43 128/13/43
f 123/11/42 125/12/9 124/11/42
f 125/12/9 123/11/42 127/12/9
f 130/13/44 133/12/7 129/13/44
f 133/12/7 130/13/44 135/12/7
f 139/11/42 138/10/4 137/10/4
f 138/10/4 139/11/42 140/11/42
f 143/12/9 142/13/43 141/12/9
f 142/13/43 143/12/9 144/13/43
f 147/14/3 146/13/44 145/13/44
f 146/13/44 147/14/3 148/14/3
f 127/12/7 149/11/45 125/12/7
f 149/11/45 127/12/7 150/11/45
f 137/10/4 149/11/45 150/11/45
f 149/11/45 137/10/4 138/10/4
f 142/13/43 148/14/3 147/14/3
f 148/14/3 142/13/43 144/13/43
f 139/11/42 141/12/9 140/11/42
f 141/12/9 139/11/42 143/12/9
f 146/13/44 125/12/7 145/13/44
f 125/12/7 146/13/44 127/12/7
f 153/10/9 152/14/9 151/10/9
f 152/14/9 153/10/9 154/14/9
f 152/14/2 155/10/2 151/10/2
f 155/10/2 152/14/2 156/14/2
f 152/14/3 157/14/3 156/14/3
f 157/14/3 152/14/3 154/14/3
f 157/14/7 155/10/7 156/14/7
f 155/10/7 157/14/7 158/10/7
f 157/14/5 153/10/5 158/10/5
f 153/10/5 157/14/5 154/14/5
f 161/10/28 160/14/28 159/10/28
f 160/14/28 161/10/28 162/14/28
f 160/14/46 163/10/46 159/10/46
f 163/10/46 160/14/46 164/14/46
f 160/14/3 165/14/3 164/14/3
f 165/14/3 160/14/3 162/14/3
f 165/14/27 163/10/27 164/14/27
f 163/10/27 165/14/27 166/10/27
f 165/14/29 161/10/29 166/10/29
f 161/10/29 165/14/29 162/14/29
f 169/15/47 168/15/4 167/15/47
f 168/15/4 169/15/47 170/15/4
f 171/16/46 168/15/46 170/15/46
f 168/15/46 171/16/46 172/16/46
f 173/16/48 169/15/47 167/15/47
f 169/15/47 173/16/48 174/16/48
f 173/16/27 168/15/27 172/16/27
f 168/15/27 173/16/27 167/15/27
f 171/16/3 173/16/48 172/16/3
f 173/16/48 171/16/3 174/16/48
f 169/15/28 171/16/28 170/15/28
f 171/16/28 169/15/28 174/16/28
f 177/15/49 176/15/4 175/15/49
f 176/15/4 177/15/49 178/15/4
f 179/16/2 176/15/2 178/15/2
f 176/15/2 179/16/2 180/16/2
f 181/16/50 177/15/49 175/15/49
f 177/15/49 181/16/50 182/16/50
f 181/16/7 176/15/7 180/16/7
f 176/15/7 181/16/7 175/15/7
f 179/16/3 181/16/50 180/16/3
f 181/16/50 179/16/3 182/16/50
f 177/15/9 179/16/9 178/15/9
f 179/16/9 177/15/9 182/16/9

g conveyor-bars-fence




usemtl colormap

f 3/2/2 2/1/1 1/1/1
f 2/1/1 3/2/2 4/2/2
f 3/2/3 5/2/3 4/2/3
f 5/2/3 3/2/3 6/2/3
f 9/3/4 8/3/4 7/3/4
f 8/3/4 9/3/4 10/3/4
f 5/2/5 9/3/5 7/3/5
f 9/3/5 5/2/5 6/2/5
f 11/4/6 8/3/2 10/3/2
f 8/3/2 11/4/6 12/4/6
f 5/2/7 2/1/7 4/2/7
f 2/1/7 5/2/7 13/5/7
f 13/5/7 5/2/7 14/6/7
f 7/3/7 14/6/7 5/2/7
f 8/3/7 14/6/7 7/3/7
f 14/6/7 8/3/7 12/4/7
f 15/5/8 2/1/1 13/5/8
f 2/1/1 15/5/8 1/1/1
f 9/3/9 11/4/9 10/3/9
f 11/4/9 9/3/9 16/6/9
f 16/6/9 9/3/9 15/5/9
f 6/2/9 15/5/9 9/3/9
f 3/2/9 15/5/9 6/2/9
f 15/5/9 3/2/9 1/1/9
f 11/4/6 14/6/10 12/4/6
f 14/6/10 11/4/6 16/6/10
f 19/2/5 18/1/11 17/1/11
f 18/1/11 19/2/5 20/2/5
f 23/3/4 22/3/4 21/3/4
f 22/3/4 23/3/4 24/3/4
f 25/2/3 20/2/3 19/2/3
f 20/2/3 25/2/3 26/2/3
f 29/6/13 28/4/12 27/4/12
f 28/4/12 29/6/13 30/6/13
f 31/5/7 19/2/7 17/1/7
f 31/5/7 25/2/7 19/2/7
f 25/2/7 31/5/7 22/3/7
f 29/6/7 22/3/7 31/5/7
f 22/3/7 29/6/7 21/3/7
f 21/3/7 29/6/7 27/4/7
f 26/2/2 22/3/2 24/3/2
f 22/3/2 26/2/2 25/2/2
f 30/6/9 23/3/9 28/4/9
f 30/6/9 24/3/9 23/3/9
f 24/3/9 30/6/9 26/2/9
f 32/5/9 26/2/9 30/6/9
f 26/2/9 32/5/9 20/2/9
f 20/2/9 32/5/9 18/1/9
f 18/1/11 31/5/14 17/1/11
f 31/5/14 18/1/11 32/5/14
f 27/4/12 23/3/5 21/3/5
f 23/3/5 27/4/12 28/4/12
f 35/7/17 34/3/16 33/1/15
f 34/3/16 35/7/17 36/3/18
f 39/7/21 38/2/20 37/1/19
f 38/2/20 39/7/21 40/2/22
f 41/2/23 35/7/17 33/1/15
f 35/7/17 41/2/23 42/2/24
f 45/3/3 44/3/3 43/3/3
f 44/3/3 45/3/3 46/3/3
f 46/3/3 45/3/3 34/3/3
f 46/3/3 34/3/3 36/3/3
f 41/2/23 37/1/19 38/2/20
f 37/1/19 41/2/23 33/1/15
f 43/3/26 37/1/19 45/3/25
f 37/1/19 43/3/26 39/7/21
f 48/2/4 40/2/4 47/2/4
f 40/2/4 48/2/4 38/2/4
f 38/2/4 48/2/4 41/2/4
f 41/2/4 48/2/4 42/2/4
f 34/3/16 37/1/19 33/1/15
f 37/1/19 34/3/16 45/3/25
f 44/3/27 39/7/21 43/3/26
f 39/7/21 44/3/27 40/2/22
f 40/2/22 44/3/27 47/2/27
f 42/2/24 36/3/18 35/7/17
f 36/3/18 42/2/24 46/3/28
f 46/3/28 42/2/24 48/2/28
f 44/3/29 48/2/29 47/2/29
f 48/2/29 44/3/29 46/3/29
f 51/7/32 50/3/31 49/1/30
f 50/3/31 51/7/32 52/3/33
f 55/7/36 54/2/35 53/1/34
f 54/2/35 55/7/36 56/2/37
f 57/2/38 51/7/32 49/1/30
f 51/7/32 57/2/38 58/2/39
f 61/3/3 60/3/3 59/3/3
f 60/3/3 61/3/3 62/3/3
f 62/3/3 61/3/3 50/3/3
f 62/3/3 50/3/3 52/3/3
f 57/2/38 53/1/34 54/2/35
f 53/1/34 57/2/38 49/1/30
f 59/3/41 53/1/34 61/3/40
f 53/1/34 59/3/41 55/7/36
f 64/2/4 56/2/4 63/2/4
f 56/2/4 64/2/4 54/2/4
f 54/2/4 64/2/4 57/2/4
f 57/2/4 64/2/4 58/2/4
f 50/3/31 53/1/34 49/1/30
f 53/1/34 50/3/31 61/3/40
f 60/3/7 55/7/36 59/3/41
f 55/7/36 60/3/7 56/2/37
f 56/2/37 60/3/7 63/2/7
f 58/2/39 52/3/33 51/7/32
f 52/3/33 58/2/39 62/3/9
f 62/3/9 58/2/39 64/2/9
f 60/3/5 64/2/5 63/2/5
f 64/2/5 60/3/5 62/3/5
f 67/4/4 66/4/4 65/4/4
f 66/4/4 67/4/4 68/4/4
f 68/4/4 67/4/4 69/4/4
f 69/4/4 67/4/4 70/4/4
f 72/1/27 66/4/26 71/1/26
f 66/4/26 72/1/27 65/4/27
f 73/1/3 72/1/3 71/1/3
f 72/1/3 73/1/3 74/1/3
f 74/1/3 73/1/3 75/1/3
f 74/1/3 75/1/3 76/1/3
f 70/4/18 75/1/16 69/4/16
f 75/1/16 70/4/18 76/1/18
f 67/4/28 76/1/18 70/4/18
f 76/1/18 67/4/28 74/1/28
f 71/1/26 68/4/25 73/1/25
f 68/4/25 71/1/26 66/4/26
f 75/1/16 68/4/25 69/4/16
f 68/4/25 75/1/16 73/1/25
f 79/4/4 78/4/4 77/4/4
f 78/4/4 79/4/4 80/4/4
f 80/4/4 79/4/4 81/4/4
f 81/4/4 79/4/4 82/4/4
f 84/1/7 78/4/41 83/1/41
f 78/4/41 84/1/7 77/4/7
f 85/1/3 84/1/3 83/1/3
f 84/1/3 85/1/3 86/1/3
f 86/1/3 85/1/3 87/1/3
f 86/1/3 87/1/3 88/1/3
f 82/4/33 87/1/31 81/4/31
f 87/1/31 82/4/33 88/1/33
f 79/4/9 88/1/33 82/4/33
f 88/1/33 79/4/9 86/1/9
f 83/1/41 80/4/40 85/1/40
f 80/4/40 83/1/41 78/4/41
f 87/1/31 80/4/40 81/4/31
f 80/4/40 87/1/31 85/1/40
f 15/9/2 14/8/2 16/8/2
f 14/8/2 15/9/2 13/9/2
f 31/9/5 30/8/5 29/8/5
f 30/8/5 31/9/5 32/9/5
f 91/11/42 90/10/4 89/10/4
f 90/10/4 91/11/42 92/11/42
f 95/12/9 94/13/43 93/12/9
f 94/13/43 95/12/9 96/13/43
f 99/14/3 98/13/44 97/13/44
f 98/13/44 99/14/3 100/14/3
f 103/12/7 102/11/45 101/12/7
f 102/11/45 103/12/7 104/11/45
f 89/10/4 102/11/45 104/11/45
f 102/11/45 89/10/4 90/10/4
f 94/13/43 100/14/3 99/14/3
f 100/14/3 94/13/43 96/13/43
f 91/11/42 93/12/9 92/11/42
f 93/12/9 91/11/42 95/12/9
f 98/13/44 101/12/7 97/13/44
f 101/12/7 98/13/44 103/12/7
f 107/11/42 106/10/4 105/10/4
f 106/10/4 107/11/42 108/11/42
f 111/12/9 110/13/43 109/12/9
f 110/13/43 111/12/9 112/13/43
f 115/14/3 114/13/44 113/13/44
f 114/13/44 115/14/3 116/14/3
f 119/12/7 118/11/45 117/12/7
f 118/11/45 119/12/7 120/11/45
f 105/10/4 118/11/45 120/11/45
f 118/11/45 105/10/4 106/10/4
f 110/13/43 116/14/3 115/14/3
f 116/14/3 110/13/43 112/13/43
f 107/11/42 109/12/9 108/11/42
f 109/12/9 107/11/42 111/12/9
f 114/13/44 117/12/7 113/13/44
f 117/12/7 114/13/44 119/12/7
f 123/11/42 122/10/4 121/10/4
f 122/10/4 123/11/42 124/11/42
f 127/12/9 126/13/43 125/12/9
f 126/13/43 127/12/9 128/13/43
f 131/14/3 130/13/44 129/13/44
f 130/13/44 131/14/3 132/14/3
f 135/12/7 134/11/45 133/12/7
f 134/11/45 135/12/7 136/11/45
f 121/10/4 134/11/45 136/11/45
f 134/11/45 121/10/4 122/10/4
f 126/13/43 132/14/3 131/14/3
f 132/14/3 126/13/43 128/13/43
f 123/11/42 125/12/9 124/11/42
f 125/12/9 123/11/42 127/12/9
f 130/13/44 133/12/7 129/13/44
f 133/12/7 130/13/44 135/12/7
f 139/11/42 138/10/4 137/10/4
f 138/10/4 139/11/42 140/11/42
f 143/12/9 142/13/43 141/12/9
f 142/13/43 143/12/9 144/13/43
f 147/14/3 146/13/44 145/13/44
f 146/13/44 147/14/3 148/14/3
f 127/12/7 149/11/45 125/12/7
f 149/11/45 127/12/7 150/11/45
f 137/10/4 149/11/45 150/11/45
f 149/11/45 137/10/4 138/10/4
f 142/13/43 148/14/3 147/14/3
f 148/14/3 142/13/43 144/13/43
f 139/11/42 141/12/9 140/11/42
f 141/12/9 139/11/42 143/12/9
f 146/13/44 125/12/7 145/13/44
f 125/12/7 146/13/44 127/12/7
f 153/10/9 152/14/9 151/10/9
f 152/14/9 153/10/9 154/14/9
f 152/14/2 155/10/2 151/10/2
f 155/10/2 152/14/2 156/14/2
f 152/14/3 157/14/3 156/14/3
f 157/14/3 152/14/3 154/14/3
f 157/14/7 155/10/7 156/14/7
f 155/10/7 157/14/7 158/10/7
f 157/14/5 153/10/5 158/10/5
f 153/10/5 157/14/5 154/14/5
f 161/10/28 160/14/28 159/10/28
f 160/14/28 161/10/28 162/14/28
f 160/14/46 163/10/46 159/10/46
f 163/10/46 160/14/46 164/14/46
f 160/14/3 165/14/3 164/14/3
f 165/14/3 160/14/3 162/14/3
f 165/14/27 163/10/27 164/14/27
f 163/10/27 165/14/27 166/10/27
f 165/14/29 161/10/29 166/10/29
f 161/10/29 165/14/29 162/14/29
f 169/15/47 168/15/4 167/15/47
f 168/15/4 169/15/47 170/15/4
f 171/16/46 168/15/46 170/15/46
f 168/15/46 171/16/46 172/16/46
f 173/16/48 169/15/47 167/15/47
f 169/15/47 173/16/48 174/16/48
f 173/16/27 168/15/27 172/16/27
f 168/15/27 173/16/27 167/15/27
f 171/16/3 173/16/48 172/16/3
f 173/16/48 171/16/3 174/16/48
f 169/15/28 171/16/28 170/15/28
f 171/16/28 169/15/28 174/16/28
f 177/15/49 176/15/4 175/15/49
f 176/15/4 177/15/49 178/15/4
f 179/16/2 176/15/2 178/15/2
f 176/15/2 179/16/2 180/16/2
f 181/16/50 177/15/49 175/15/49
f 177/15/49 181/16/50 182/16/50
f 181/16/7 176/15/7 180/16/7
f 176/15/7 181/16/7 175/15/7
f 179/16/3 181/16/50 180/16/3
f 181/16/50 179/16/3 182/16/50
f 177/15/9 179/16/9 178/15/9
f 179/16/9 177/15/9 182/16/9

